{"title":"From Dusk Till Dawn The Series S01E01 WEB DL x264 AAC E-Subs [GW","uid":9753821,"size":180497874,"categoryP":"video","categoryS":"tv_shows","magnet":"?xt=urn:btih:7dbbe18f58b020105f5845a133d149f4928661f1&amp;dn=From+Dusk+Till+Dawn+The+Series+S01E01+WEB+DL+x264+AAC+E-Subs+%5BGW&amp;tr=udp%3A%2F%2Ftracker.openbittorrent.com%3A80&amp;tr=udp%3A%2F%2Fopen.demonii.com%3A1337&amp;tr=udp%3A%2F%2Ftracker.coppersurfer.tk%3A6969&amp;tr=udp%3A%2F%2Fexodus.desync.com%3A6969","seeders":2,"leechers":0,"uploader":"canc232","files":1,"time":1394697011,"description":"From Dusk Till Dawn The Series S01E01 WEB DL x264 AAC E-Subs [GWC]\n\n\nSTORYLINE :\nA Texas Ranger is in hot pursuit of the infamous Gecko brothers.\n\n\nSCREENS : &lt;a href=&quot;\nhttp://i.imgur.com/F1N1wCf.jpg&quot; rel=&quot;nofollow&quot; target=&quot;_NEW&quot;&gt;\nhttp://i.imgur.com/F1N1wCf.jpg&lt;/a&gt; &lt;a href=&quot;\nhttp://i.imgur.com/cWbKtUF.jpg&quot; rel=&quot;nofollow&quot; target=&quot;_NEW&quot;&gt;\nhttp://i.imgur.com/cWbKtUF.jpg&lt;/a&gt; &lt;a href=&quot;\nhttp://i.imgur.com/mOhrLek.jpg&quot; rel=&quot;nofollow&quot; target=&quot;_NEW&quot;&gt;\nhttp://i.imgur.com/mOhrLek.jpg&lt;/a&gt;\n\n\nMEDIA INFO :\nGeneral \nFormat : MPEG-4 \nFormat profile : Base Media \nFile size : 172 MiB \nDuration : 44mn 25s \nOverall bit rate : 542 Kbps \n\nVideo \nFormat : AVC \nFormat profile : &lt;a class=&quot;__cf_email__&quot; href=&quot;/cdn-cgi/l/email-protection&quot; data-cfemail=&quot;165e7f717e565a253826&quot;&gt;[email&amp;#160;protected]&lt;/a&gt;&lt;script cf-hash='f9e31' type=&quot;text/javascript&quot;&gt;\n/* &lt;![CDATA[ */!function(){try{var t=&quot;currentScript&quot;in document?document.currentScript:function(){for(var t=document.getElementsByTagName(&quot;script&quot;),e=t.length;e--;)if(t[e].getAttribute(&quot;cf-hash&quot;))return t[e]}();if(t&amp;&amp;t.previousSibling){var e,r,n,i,c=t.previousSibling,a=c.getAttribute(&quot;data-cfemail&quot;);if(a){for(e=&quot;&quot;,r=parseInt(a.substr(0,2),16),n=2;a.length-n;n+=2)i=parseInt(a.substr(n,2),16)^r,e+=String.fromCharCode(i);e=document.createTextNode(e),c.parentNode.replaceChild(e,c)}}}catch(u){}}();/* ]]&gt; */&lt;/script&gt; \nFormat settings, CABAC : Yes \nFormat settings, ReFrames : 4 frames \nDuration : 44mn 25s \nBit rate : 479 Kbps \nMaximum bit rate : 3 740 Kbps \nWidth : 720 pixels \nHeight : 404 pixels \nDisplay aspect ratio : 16:9 \nFrame rate : 23.976 fps \nStream size : 152 MiB (88%) \nTitle : From Dusk Till Dawn The Series S01E01 WEB DL x264 AAC E-Subs [GWC] \nWriting library : x264 core \n\nAudio \nFormat : AAC \nFormat profile : HE-AAC / LC \nDuration : 44mn 25s \nBit rate mode : Variable \nChannel(s) : 2 channels \nSampling rate : 48.0 KHz / 24.0 KHz \nStream size : 19.0 MiB (11%) \nLanguage : English  \n\nText \nFormat : Timed Text \nDuration : 43mn 26s \nTitle : English Subtitle by chamallow \nLanguage : English ","torrent":{"xt":"urn:btih:7dbbe18f58b020105f5845a133d149f4928661f1","amp;dn":"From+Dusk+Till+Dawn+The+Series+S01E01+WEB+DL+x264+AAC+E-Subs+%5BGW","amp;tr":["udp%3A%2F%2Ftracker.openbittorrent.com%3A80","udp%3A%2F%2Fopen.demonii.com%3A1337","udp%3A%2F%2Ftracker.coppersurfer.tk%3A6969","udp%3A%2F%2Fexodus.desync.com%3A6969"],"infoHash":"7dbbe18f58b020105f5845a133d149f4928661f1","infoHashBuffer":{"type":"Buffer","data":[125,187,225,143,88,176,32,16,95,88,69,161,51,209,73,244,146,134,97,241]},"announce":[],"urlList":[]}}